<?xml version="1.0" encoding="UTF-8" standalone="no"?>
<svg xmlns:dc="http://purl.org/dc/elements/1.1/" xmlns:cc="http://creativecommons.org/ns#" xmlns:rdf="http://www.w3.org/1999/02/22-rdf-syntax-ns#" xmlns:svg="http://www.w3.org/2000/svg" xmlns="http://www.w3.org/2000/svg" id="svg4906" version="1.1" viewBox="0 0 45.454746 18.075094" height="18.075094mm" width="45.454746mm">
  <defs id="defs4900"/>
  <metadata id="metadata4903">
    <rdf:RDF>
      <cc:Work rdf:about="">
        <dc:format>image/svg+xml</dc:format>
        <dc:type rdf:resource="http://purl.org/dc/dcmitype/StillImage"/>
        <dc:title/>
      </cc:Work>
    </rdf:RDF>
  </metadata>
  <g transform="translate(-52.111912,-129.96841)" id="layer1">
    <g id="g6629" transform="matrix(0.93797488,0,0,0.94085307,15.805698,219.80944)" style="display:inline">
      <g transform="translate(12.165328,-292.33064)" style="display:inline" id="g6625">
        <path style="clip-rule:evenodd;fill:#ca2334;fill-rule:nonzero;stroke-width:0.02834687;image-rendering:optimizeQuality;shape-rendering:geometricPrecision;text-rendering:geometricPrecision" d="m 218.0918,289.18945 c -0.27412,-0.0223 -0.55638,-0.0179 -0.83985,0.0176 -2.29609,0.25512 -3.91041,2.32499 -3.62695,4.62109 0.0686,0.6102 0.27629,1.16616 0.57617,1.65821 l -14.24609,18.07617 c -0.3602,-0.22101 -0.78721,-0.33675 -1.24024,-0.28906 -1.07718,0.14173 -1.8722,1.10643 -1.73046,2.18359 0.11338,1.10555 1.10641,1.87025 2.18359,1.72852 0.80635,-0.0849 1.45279,-0.66166 1.66797,-1.39844 l 23.94336,3.94922 c 0.35267,2.61973 2.735,4.47644 5.37109,4.16797 2.69296,-0.31181 4.59306,-2.74946 4.28125,-5.41407 -0.16221,-1.38617 -0.90759,-2.55583 -1.95312,-3.32421 L 237.5,300.61719 c 0.20582,0.0433 0.41906,0.0621 0.63867,0.0332 0.59079,-0.0622 1.08096,-0.3936 1.39063,-0.85351 l 9.625,4.93554 c -0.12185,0.47733 -0.17066,0.98042 -0.10547,1.4961 0.2339,2.28703 2.28718,3.92478 4.57422,3.63867 2.28703,-0.25992 3.92336,-2.34054 3.68945,-4.60157 -0.25989,-2.28702 -2.31257,-3.8987 -4.59961,-3.63867 -0.92664,0.10531 -1.74131,0.51958 -2.375,1.11328 l -10.51367,-3.63281 c 0.0451,-0.20575 0.0661,-0.41914 0.043,-0.63867 -0.14174,-1.07717 -1.10642,-1.84385 -2.1836,-1.73047 -1.07718,0.11339 -1.87024,1.10643 -1.72851,2.1836 0.0649,0.61642 0.42239,1.13282 0.91406,1.4414 l -6.48633,13.92969 c -0.44356,-0.0737 -0.89741,-0.10943 -1.36523,-0.0547 -0.0885,0.0104 -0.17488,0.028 -0.26172,0.043 l -8.91992,-17.37891 c 1.38216,-0.81592 2.22002,-2.38431 2.00976,-4.0664 -0.22323,-1.98429 -1.83512,-3.49069 -3.7539,-3.64649 z m -1.94532,7.95313 c 0.63594,0.26607 1.33889,0.39674 2.07032,0.31445 0.30349,-0.0375 0.59223,-0.11082 0.86914,-0.20703 L 226.5,315.32031 c -0.6197,0.51166 -1.09151,1.17486 -1.39648,1.91992 l -24.20313,-2.07812 c -0.003,-0.0529 0.003,-0.10475 -0.004,-0.1582 -0.0519,-0.39449 -0.21552,-0.7463 -0.45312,-1.0293 z" transform="matrix(0.26458333,0,0,0.26458333,-12.165328,120.33064)" id="path6623"/>
      </g>
      <path id="path6627" transform="matrix(0.00999727,0,0,0.00999727,31.842639,-149.58562)" style="clip-rule:evenodd;display:inline;opacity:1;fill:#505050;fill-opacity:1;fill-rule:nonzero;image-rendering:optimizeQuality;shape-rendering:geometricPrecision;text-rendering:geometricPrecision" d="m 2949,6420 v 870 h -112 v -870 z m -427.2419,581.1494 94.4174,49.6091 q -46.4086,91.2168 -107.2197,147.2271 -60.8112,56.0101 -136.8251,85.6156 -76.014,28.8053 -172.0316,28.8053 -212.8391,0 -332.861,-139.2255 -120.0221,-140.0257 -120.0221,-316.058 0,-165.6304 101.6186,-295.2542 128.8237,-164.8303 344.8634,-164.8303 222.4408,0 355.2652,168.831 94.4172,119.2218 96.0176,297.6546 h -782.5437 q 3.2009,152.0279 96.8179,249.6458 93.6171,96.8178 231.2424,96.8178 66.4121,0 128.8236,-23.2042 63.2116,-23.2043 107.2196,-61.6113 44.0082,-38.4071 95.2175,-124.0228 z m 0,-234.4431 q -22.4041,-89.6164 -65.612,-143.2262 -42.4077,-53.6099 -112.8207,-86.4159 -70.4129,-32.806 -148.0272,-32.806 -128.0234,0 -220.0404,82.4151 -67.2123,60.011 -101.6186,180.033 z m -1835.13235,-653.72 h 118.42183 v 493.6907 h 598.50982 v -493.6907 h 118.4217 V 7290.0024 H 1403.5574 V 6721.8981 H 805.04758 v 568.1043 H 686.62575 Z m 4573.37545,254.8264 v 920.999 h -169.9998 v -920.999 H 4821.0008 V 6202.812 h 712.9999 v 165.0007 z m -1240.9999,744.0001 v -358.0001 h 187.5 v 33.0001 c 0,61.9993 -1.0003,124.9991 0,188.0002 0,40.9985 1.0002,81.9983 0,122.9993 v 84.9999 c 0,0 -19.7622,18.3614 -40.5003,35.0001 -30,20.9995 -59.9996,40.9998 -94.0001,57.0001 -87.9997,40.0004 -181.9998,57.9996 -277.9998,57.9996 -181.9991,0 -342.9995,-57.0002 -463.0004,-195.9999 -97.9999,-113.9991 -142.9992,-249.0001 -142.9992,-398.9999 0,-160.9997 57.0007,-301 173.0001,-413.9997 118.9998,-116.0002 266.0001,-168 430.9995,-168 98,0 194.0001,18.9996 281.9997,62.0006 46.0002,21.9988 88.0003,49.9998 126.0002,83.9993 l 21.0002,16.9997 -89.0003,155.0002 -30.9997,-28.9992 c -31.9999,-32.0008 -67.9996,-57.0014 -108.9996,-77.0004 -62.0008,-30.0009 -129.0003,-42.9996 -198.0005,-42.9996 -77.9992,0 -150.9996,18.9984 -217.9997,56.9989 -65.0003,36.0007 -117.0001,86.0005 -155.0006,151.0003 -37.9991,66.0003 -54.9987,138.0003 -54.9987,214.0001 0,116.9995 38.9995,216.9993 122.9999,299.9994 85.9991,84.0006 191.9994,120.0012 311.9993,120.0012 76.9997,0 150.9998,-17.0009 218,-55.0002 z m 467.9999,-909.0008 h 167.9999 v 1085.9997 h -167.9999 z"/>
    </g>
  </g>
</svg>